<svg fill="#000000" height="200px" width="200px" version="1.1" id="Layer_1" xmlns="http://www.w3.org/2000/svg" xmlns:xlink="http://www.w3.org/1999/xlink" viewBox="0 0 512 512" xml:space="preserve"><g id="SVGRepo_bgCarrier" stroke-width="0"></g><g id="SVGRepo_tracerCarrier" stroke-linecap="round" stroke-linejoin="round"></g><g id="SVGRepo_iconCarrier"> <g> <g> <g> <path d="M343.061,276.544c-25.74-14.542-55.446-22.853-87.061-22.853s-61.319,8.311-87.059,22.853 c-3.299,1.864-4.247,6.189-2.078,9.295l83.848,120.153c2.567,3.678,8.013,3.678,10.579,0L345.14,285.84 C347.308,282.733,346.36,278.409,343.061,276.544z"></path> <path d="M146.09,301.16c-2.215-3.175-6.734-3.725-9.596-1.116c-35.66,32.5-58.077,79.293-58.077,131.229v61.376 c0,10.687,8.664,19.352,19.352,19.352h138.879c3.562,0,6.451-2.889,6.451-6.451v-63.348c0.001-1.321-0.404-2.609-1.16-3.692 L146.09,301.16z"></path> <path d="M375.506,300.044c-2.861-2.609-7.379-2.059-9.595,1.116l-95.849,137.349c-0.756,1.082-1.161,2.371-1.161,3.691v63.35 c0,3.562,2.889,6.451,6.451,6.451h138.879c10.687,0,19.352-8.664,19.352-19.352v-61.376 C433.583,379.337,411.165,332.544,375.506,300.044z"></path> <path d="M184.425,139.28c-10.687,0-19.352,8.664-19.352,19.352v60.442c0,10.687,8.664,19.352,19.352,19.352h143.152 c10.687,0,19.352-8.664,19.352-19.352v-60.442c0-10.687-8.664-19.352-19.352-19.352H184.425z"></path> <path d="M148.594,131.202c8.257-10.769,21.244-17.724,35.832-17.724h143.152c14.587,0,27.575,6.955,35.831,17.722 c3.593,4.686,11.099,2.357,11.514-3.534C379.795,58.633,324.961,0,256.001,0c-68.847,0-123.802,58.522-118.921,127.668 C137.495,133.559,145.001,135.887,148.594,131.202z"></path> </g> </g> </g> </g></svg>